<svg xmlns="http://www.w3.org/2000/svg" width="1200" height="1200" viewBox="0 0 1200 1200" fill="none">
<path fill-rule="evenodd" clip-rule="evenodd" d="M303.574 1056.01C336.737 920.526 369.899 785.104 403.062 649.739L437.227 821.629C615.844 695.588 874.299 564.945 1080 501.394C771.802 676.47 508.922 866.593 303.574 1056.01Z" fill="#00A778"/>
<path fill-rule="evenodd" clip-rule="evenodd" d="M724.89 481.924L965.642 499.981L815.526 563.001L673.73 552.38L594.423 358.362L515.117 552.38L306.052 567.958L357.212 610.974L337.562 691.343L120 507.416L463.957 481.924L594.423 162.75L724.89 481.924Z" fill="#161617"/>
<path fill-rule="evenodd" clip-rule="evenodd" d="M881.907 1056.19L810.744 865.711L722.232 930.325L881.907 1056.19Z" fill="#161617"/>
<path fill-rule="evenodd" clip-rule="evenodd" d="M696.212 801.625L834.644 857.387L707.01 950.679L696.212 801.625Z" fill="#161617"/>
</svg>